<svg xmlns="http://www.w3.org/2000/svg" width="14" height="17" viewBox="0 0 14 17">
    <path fill="#3B3B3B" fill-rule="evenodd" d="M7 8.663c-2.31 0-3.305-3.056-3.106-4.01 2.54-2.16 4.788-2.01 4.788-2.01s.403 1.223 1.44 2.7C9.939 6.8 8.432 8.663 7 8.663zm.001 3.723l-2.427-1.209 1.26-1.94c.34.17.79.266 1.166.266.377 0 .82-.098 1.162-.27l1.255 1.945-2.416 1.208zm6.98 2.919a31.183 31.183 0 0 0-.07-.395c-.283-1.504-.744-3.895-2.505-5.188.13-.842.197-2.151.197-4.098C11.603 2.515 9.54 0 7 0 5.267 0 4.165 1.2 4.165 1.2 3.092 2.233 2.397 3.828 2.397 5.63c0 1.941.07 3.25.196 4.09C.825 11 .373 13.41.09 14.915a32.16 32.16 0 0 0-.071.395 1.28 1.28 0 0 0 1.068 1.472c.074.012.147.018.22.018l4.568-.001v-.001l6.818-.003c.072 0 .146-.006.22-.018a1.28 1.28 0 0 0 1.068-1.472z"/>
</svg>
