<svg xmlns="http://www.w3.org/2000/svg" width="14" height="19" viewBox="0 0 14 19">
    <g fill="#3B3B3B" fill-rule="evenodd">
        <path d="M7.033 10.215c-1.976 0-3.566-2.538-3.566-4.64 0-.288.01-.555.028-.803 2.89.12 4.598-.976 5.528-1.927.882.832 1.34 1.882 1.575 2.662v.068c0 2.102-1.59 4.64-3.565 4.64m3.888-2.3c.515-.104.99-.507 1.067-1.4.064-.73-.134-1.107-.427-1.299.812-3.131-1.427-3.744-1.427-3.744S8.46-1.214 5.196.671C4.78.91 4.135 1.37 3.75 1.844c-.618.622-1.038 1.633-1.104 3.27-.399.143-.712.508-.634 1.4.082.934.596 1.332 1.138 1.413C3.88 9.612 5.324 11 7.033 11c1.712 0 3.158-1.395 3.888-3.085M6.468 13.883l.225-.921a.536.536 0 0 1 .158-.267 1.314 1.314 0 0 1-.068-.05L4.767 11l-1.226.283C1.464 11.764 0 13.493 0 15.475v2.604C0 18.59.463 19 1.016 19h5.192L7 14.553a.545.545 0 0 1-.532-.67M10.46 11.283L9.243 11l-2.026 1.644a1.302 1.302 0 0 1-.067.051c.076.07.132.16.159.267l.226.92a.546.546 0 0 1-.535.671L7.797 19h5.223c.556 0 .98-.408.98-.921v-2.603c.001-1.983-1.45-3.712-3.54-4.193"/>
    </g>
</svg>
